<svg xmlns="http://www.w3.org/2000/svg" xmlns:xlink="http://www.w3.org/1999/xlink" width="1282" height="722" overflow="hidden"><defs><filter id="fx0" x="-10%" y="-10%" width="120%" height="120%" filterUnits="userSpaceOnUse" primitiveUnits="userSpaceOnUse"><feComponentTransfer color-interpolation-filters="sRGB"><feFuncR type="discrete" tableValues="0 0"/><feFuncG type="discrete" tableValues="0 0"/><feFuncB type="discrete" tableValues="0 0"/><feFuncA type="linear" slope="0.4" intercept="0"/></feComponentTransfer><feGaussianBlur stdDeviation="1.77778 1.77778"/></filter><filter id="fx1" x="-10%" y="-10%" width="120%" height="120%" filterUnits="userSpaceOnUse" primitiveUnits="userSpaceOnUse"><feComponentTransfer color-interpolation-filters="sRGB"><feFuncR type="discrete" tableValues="0 0"/><feFuncG type="discrete" tableValues="0 0"/><feFuncB type="discrete" tableValues="0 0"/><feFuncA type="linear" slope="0.329412" intercept="0"/></feComponentTransfer><feGaussianBlur stdDeviation="7.88889 7.88889"/></filter><filter id="fx2" x="-10%" y="-10%" width="120%" height="120%" filterUnits="userSpaceOnUse" primitiveUnits="userSpaceOnUse"><feComponentTransfer color-interpolation-filters="sRGB"><feFuncR type="discrete" tableValues="0 0"/><feFuncG type="discrete" tableValues="0 0"/><feFuncB type="discrete" tableValues="0 0"/><feFuncA type="linear" slope="0.4" intercept="0"/></feComponentTransfer><feGaussianBlur stdDeviation="1.77778 1.77778"/></filter><clipPath id="clip3"><rect x="-1" y="-4" width="1282" height="722"/></clipPath><linearGradient x1="1127.24" y1="34.3445" x2="1147.22" y2="183.35" gradientUnits="userSpaceOnUse" spreadMethod="reflect" id="fill4"><stop offset="0" stop-color="#AFD9FF"/><stop offset="0.01" stop-color="#AFD9FF"/><stop offset="1" stop-color="#F6A4A4"/></linearGradient><clipPath id="clip5"><rect x="-2" y="-2" width="145" height="95"/></clipPath><clipPath id="clip6"><rect x="0" y="0" width="142" height="93"/></clipPath><linearGradient x1="1094.9" y1="511.912" x2="1225.1" y2="587.088" gradientUnits="userSpaceOnUse" spreadMethod="reflect" id="fill7"><stop offset="0" stop-color="#AFD9FF"/><stop offset="0.01" stop-color="#AFD9FF"/><stop offset="1" stop-color="#F6A4A4"/></linearGradient><linearGradient x1="91.3603" y1="83.3445" x2="173.698" y2="209.131" gradientUnits="userSpaceOnUse" spreadMethod="reflect" id="fill8"><stop offset="0" stop-color="#AFD9FF"/><stop offset="0.01" stop-color="#AFD9FF"/><stop offset="1" stop-color="#F6A4A4"/></linearGradient><linearGradient x1="1128.36" y1="364.793" x2="1223.88" y2="361.539" gradientUnits="userSpaceOnUse" spreadMethod="reflect" id="fill9"><stop offset="0" stop-color="#AFD9FF"/><stop offset="0.01" stop-color="#AFD9FF"/><stop offset="1" stop-color="#ED7D31"/></linearGradient><linearGradient x1="24.1125" y1="108.197" x2="123.888" y2="165.803" gradientUnits="userSpaceOnUse" spreadMethod="reflect" id="fill10"><stop offset="0" stop-color="#AFD9FF"/><stop offset="0.01" stop-color="#AFD9FF"/><stop offset="1" stop-color="#F6A4A4"/></linearGradient><linearGradient x1="66.6657" y1="680.554" x2="165.394" y2="611.902" gradientUnits="userSpaceOnUse" spreadMethod="reflect" id="fill11"><stop offset="0" stop-color="#AFD9FF"/><stop offset="0.01" stop-color="#AFD9FF"/><stop offset="1" stop-color="#F6A4A4"/></linearGradient><linearGradient x1="1143.43" y1="331.439" x2="1142.33" y2="451.647" gradientUnits="userSpaceOnUse" spreadMethod="reflect" id="fill12"><stop offset="0" stop-color="#AFD9FF"/><stop offset="0.01" stop-color="#AFD9FF"/><stop offset="1" stop-color="#F6A4A4"/></linearGradient><linearGradient x1="885.132" y1="11.326" x2="867.042" y2="84.1043" gradientUnits="userSpaceOnUse" spreadMethod="reflect" id="fill13"><stop offset="0" stop-color="#AFD9FF"/><stop offset="0.01" stop-color="#AFD9FF"/><stop offset="1" stop-color="#F6A4A4"/></linearGradient><linearGradient x1="914.101" y1="7.86981" x2="898.62" y2="70.1516" gradientUnits="userSpaceOnUse" spreadMethod="reflect" id="fill14"><stop offset="0" stop-color="#AFD9FF"/><stop offset="0.01" stop-color="#AFD9FF"/><stop offset="1" stop-color="#F6A4A4"/></linearGradient><linearGradient x1="603.021" y1="57.5521" x2="685.979" y2="105.448" gradientUnits="userSpaceOnUse" spreadMethod="reflect" id="fill15"><stop offset="0" stop-color="#00B0F0"/><stop offset="0.01" stop-color="#00B0F0"/><stop offset="1" stop-color="#ED7D31"/></linearGradient><linearGradient x1="603.021" y1="57.5521" x2="685.979" y2="105.448" gradientUnits="userSpaceOnUse" spreadMethod="reflect" id="fill16"><stop offset="0" stop-color="#00B0F0"/><stop offset="0.01" stop-color="#00B0F0"/><stop offset="1" stop-color="#ED7D31"/></linearGradient><linearGradient x1="120.778" y1="40.7775" x2="201.223" y2="87.2225" gradientUnits="userSpaceOnUse" spreadMethod="reflect" id="fill17"><stop offset="0" stop-color="#AFD9FF"/><stop offset="0.01" stop-color="#AFD9FF"/><stop offset="1" stop-color="#F6A4A4"/></linearGradient><linearGradient x1="1243.77" y1="155.548" x2="1147.71" y2="39.9027" gradientUnits="userSpaceOnUse" spreadMethod="reflect" id="fill18"><stop offset="0" stop-color="#AFD9FF"/><stop offset="0.01" stop-color="#AFD9FF"/><stop offset="1" stop-color="#F6A4A4"/></linearGradient><clipPath id="clip19"><rect x="-7" y="-7" width="364" height="148"/></clipPath><clipPath id="clip20"><rect x="0" y="0" width="353" height="135"/></clipPath><clipPath id="clip21"><rect x="-2" y="-2" width="145" height="95"/></clipPath><clipPath id="clip22"><rect x="0" y="0" width="142" height="93"/></clipPath><linearGradient x1="1077.9" y1="543.912" x2="1208.1" y2="619.088" gradientUnits="userSpaceOnUse" spreadMethod="reflect" id="fill23"><stop offset="0" stop-color="#AFD9FF"/><stop offset="0.01" stop-color="#AFD9FF"/><stop offset="1" stop-color="#F6A4A4"/></linearGradient></defs><g clip-path="url(#clip3)" transform="translate(1 4)"><rect x="0" y="-3" width="1280" height="720" fill="#DAE3F3"/><path d="M1118.75 42.0769C1124.47 37.6683 1132.67 38.7288 1137.08 44.4457L1199.48 125.354C1203.89 131.071 1202.82 139.279 1197.11 143.688L1155.7 175.617C1149.99 180.026 1141.78 178.965 1137.37 173.248L1074.98 92.34C1070.57 86.6231 1071.63 78.4148 1077.35 74.0061Z" fill="url(#fill4)" fill-rule="evenodd"/><g clip-path="url(#clip5)" filter="url(#fx0)" transform="translate(1092 506)"><g clip-path="url(#clip6)"><path d="M6.82837 19.9953C6.82837 12.7235 12.7234 6.82843 19.9953 6.82843L121.661 6.82843C128.933 6.82843 134.828 12.7235 134.828 19.9953L134.828 72.6615C134.828 79.9334 128.933 85.8284 121.661 85.8284L19.9953 85.8284C12.7234 85.8284 6.82837 79.9334 6.82837 72.6615Z" fill="#FF0000" fill-rule="evenodd"/></g></g><path d="M1096 523.167C1096 515.895 1101.9 510 1109.17 510L1210.83 510C1218.1 510 1224 515.895 1224 523.167L1224 575.833C1224 583.105 1218.1 589 1210.83 589L1109.17 589C1101.9 589 1096 583.105 1096 575.833Z" fill="url(#fill7)" fill-rule="evenodd"/><path d="M87.0428 93.9823C90.297 87.5379 98.1591 84.9517 104.603 88.2058L195.807 134.26C202.251 137.514 204.838 145.376 201.583 151.82L178.016 198.493C174.762 204.937 166.899 207.524 160.455 204.27L69.2515 158.216C62.8072 154.962 60.221 147.099 63.4751 140.655Z" fill="url(#fill8)" fill-rule="evenodd"/><path d="M1197.52 343.926C1198.42 345.368 1198.01 347.159 1196.56 348.059 1195.12 348.959 1193.33 348.544 1192.43 347.101L1186.61 337.768C1187.51 339.21 1187.09 341.001 1185.65 341.901 1184.21 342.8 1182.42 342.385 1181.52 340.943L1178.34 335.852C1179.24 337.294 1178.83 339.085 1177.39 339.985 1175.94 340.885 1174.15 340.47 1173.25 339.027L1171.08 335.548C1169.78 336.48 1168.42 337.327 1166.89 338.279 1156.37 344.841 1148.45 347.07 1145.26 347.057 1146.65 344.185 1152.14 338.053 1162.66 331.491 1173.18 324.929 1181.1 322.7 1184.29 322.713L1197.52 343.926ZM1154.11 382.787C1153.01 382.532 1151.3 377.707 1152.24 367.691L1158.69 378.043C1156.68 381.422 1154.94 382.979 1154.11 382.787ZM1160.54 328.097C1147.39 336.3 1138.69 345.969 1141.02 349.703L1148.85 362.26C1148.74 363.034 1148.64 363.808 1148.5 364.719 1147.82 370.803 1146.74 385.144 1153.22 386.645 1154.46 386.932 1155.82 386.668 1157.1 385.874 1162.1 382.752 1166.79 371.934 1169.4 360.997 1170.01 360.849 1170.63 360.702 1171.22 360.331 1173.59 358.849 1174.3 355.818 1172.82 353.443 1171.33 351.067 1168.3 350.364 1165.93 351.846 1163.55 353.328 1162.85 356.359 1164.33 358.735 1164.65 359.244 1165.05 359.7 1165.48 360.018 1165.17 361.396 1164.76 362.827 1164.34 364.035 1162.97 363.355 1161.7 362.262 1160.8 360.82 1158.15 356.577 1159.43 351.066 1163.67 348.42 1167.92 345.774 1173.43 347.051 1176.07 351.294 1178.72 355.536 1177.44 361.047 1173.2 363.693 1173.03 363.799 1172.77 363.958 1172.6 364.064 1171.04 369.871 1167.95 379.461 1163.16 385.393L1172.69 400.665C1175.01 404.399 1187.61 400.785 1200.68 392.636 1213.74 384.486 1222.53 374.764 1220.2 371.03L1188.45 320.12C1186.21 316.334 1173.7 319.895 1160.54 328.097Z" fill="url(#fill9)" fill-rule="evenodd"/><path d="M117.3 123.076 113.497 119.297C112.597 118.402 111.296 118.402 110.396 119.198 109.595 119.993 108.294 120.093 107.394 119.297 106.493 118.402 106.493 116.91 107.394 116.015 108.194 115.12 108.094 113.827 107.294 113.031L97.9881 103.882C92.3847 98.3124 81.178 96.4227 70.1714 99.4063 70.0713 99.4063 69.9713 99.5058 69.8712 99.5058 69.4709 99.8041 69.1708 100.202 69.2708 100.699 69.3709 101.196 69.6711 101.594 70.1714 101.793 71.5722 102.291 74.1738 103.086 74.1738 103.086 80.2774 105.175 86.3811 113.131 87.1816 114.722L58.2642 143.265 57.4637 142.469C56.5632 141.574 55.1624 141.574 54.3619 142.469L31.148 165.642 31.248 165.741C29.3469 168.327 29.647 171.808 31.9485 174.096 34.2498 176.283 37.7519 176.681 40.3535 174.792L40.4535 174.891 63.7676 151.719C64.668 150.824 64.668 149.431 63.7676 148.636L62.9671 147.84 91.6843 119.297 96.287 123.872C97.1876 124.767 98.4883 124.767 99.3889 123.971 100.189 123.176 101.49 123.076 102.391 123.872 103.291 124.767 103.291 126.259 102.391 127.154 101.59 128.049 101.69 129.342 102.491 130.137L106.393 133.917C107.294 134.812 108.694 134.812 109.595 133.917L117.3 126.259C117.7 125.861 118 125.264 118 124.667 118 124.071 117.8 123.474 117.3 123.076Z" fill="url(#fill10)" fill-rule="evenodd"/><path d="M93.2774 591.108 96.1119 602.939 99.7165 607.728 99.8495 607.68 116.148 652.917 110.602 654.84 111.992 658.699C113.456 658.171 114.994 658.895 115.431 660.316 115.958 661.779 115.235 663.318 113.814 663.754L126.091 698.039 126.224 697.991C128.141 701.434 132.293 702.944 136.018 701.602 139.743 700.26 141.978 696.449 141.258 692.574L141.391 692.526 140.912 691.196 129.072 658.332C127.608 658.86 126.07 658.136 125.633 656.715 125.106 655.252 125.829 653.713 127.25 653.276L125.908 649.551 120.23 651.522 103.931 606.285 104.064 606.237 103.786 600.249 98.3332 589.286 93.2774 591.108Z" fill="url(#fill11)" fill-rule="evenodd"/><path d="M1181.51 408.878 1179.67 401.762 1184.92 396.614 1197.18 400.02C1196.27 394.335 1192.36 389.653 1186.84 387.829 1181.38 386.092 1175.36 387.428 1171.36 391.527L1118.49 376.842C1117.09 371.316 1112.62 367.065 1107.09 365.824 1101.57 364.583 1095.75 366.49 1092.04 370.889L1104.3 374.295 1106.09 381.324 1100.84 386.472 1088.58 383.065C1089.5 388.751 1093.41 393.433 1098.92 395.257 1104.38 396.994 1110.4 395.658 1114.4 391.559L1167.27 406.243C1168.67 411.77 1173.14 416.02 1178.67 417.262 1184.2 418.503 1190.01 416.595 1193.73 412.197L1181.51 408.878Z" fill="url(#fill12)" fill-rule="evenodd"/><path d="M892.181 77.6329 896.577 61.8015 890.773 65.1354C890.224 65.3972 889.675 65.6592 889.194 65.7974 882.659 67.6764 875.174 60.4638 871.858 48.931 868.542 37.3983 871.053 27.3118 877.588 25.4328 878.165 25.267 878.673 25.2248 879.277 25.1552L885.966 24.8967 873.832 13.8183C872.704 12.79 870.974 13.2874 870.565 14.7579L860.899 49.8971C860.489 51.3676 860.931 52.9053 862.059 53.9336L888.913 78.5724C890.041 79.6007 891.771 79.1033 892.181 77.6329Z" fill="url(#fill13)" fill-rule="evenodd"/><path d="M902.299 33.2071C902.371 35.2674 902.814 37.5332 903.477 39.8397 904.141 42.1463 905.037 44.1777 906.001 46.0855L897.603 50.8934C896.02 48.6433 894.682 45.8022 893.771 42.6307 892.859 39.4592 892.483 36.3417 892.629 33.5942L902.299 33.2071ZM924.302 32.2912C924.44 32.7717 924.483 33.2799 924.621 33.7604 924.759 34.241 924.897 34.7215 925.131 35.1744L916.376 40.189C915.825 38.9949 915.369 37.7732 915.01 36.5237 914.651 35.2744 914.388 33.9973 914.125 32.7203L924.302 32.2912ZM874.646 48.1297C877.381 57.6442 883.464 64.3235 888.269 62.9418 888.653 62.8313 888.914 62.6523 889.202 62.5694L936.931 35.3195C938.289 34.6166 938.766 32.2945 938.076 29.8918 937.385 27.4892 935.747 25.7749 934.223 25.901L879.31 28.1634C878.994 28.1501 878.609 28.2607 878.321 28.3436 873.516 29.7252 871.91 38.6151 874.646 48.1297Z" fill="url(#fill14)" fill-rule="evenodd"/><path d="M655.5 71.1389C651.261 71.1389 647.93 67.6989 647.93 63.5507 647.93 59.4024 651.362 55.9624 655.5 55.9624 659.74 55.9624 663.07 59.4024 663.07 63.5507 663.07 67.6989 659.639 71.1389 655.5 71.1389ZM672.559 58.7953C672.155 57.3788 671.65 56.0636 670.944 54.8495L672.559 50.0941 668.925 46.4518 664.181 48.0706C662.969 47.3624 661.657 46.8565 660.244 46.4518L658.024 42 652.977 42 650.756 46.4518C649.343 46.8565 648.031 47.3624 646.819 48.0706L642.075 46.4518 638.441 50.0941 640.056 54.8495C639.35 56.0636 638.845 57.3788 638.441 58.7953L634 61.0212 634 66.08 638.441 68.3059C638.845 69.7224 639.35 71.0377 640.056 72.2519L638.441 77.0071 641.974 80.5483 646.718 78.9295C647.93 79.6377 649.242 80.1436 650.655 80.5483L652.876 85.0001 657.923 85.0001 660.143 80.5483C661.556 80.1436 662.869 79.6377 664.08 78.9295L668.824 80.5483 672.458 77.0071 670.843 72.2519C671.549 71.0377 672.155 69.6213 672.559 68.3059L677 66.08 677 61.0212 672.559 58.7953Z" fill="url(#fill15)" fill-rule="evenodd"/><path d="M633 107.461C628.859 107.461 625.606 104.101 625.606 100.049 625.606 95.8988 628.958 92.6377 633 92.6377 637.141 92.6377 640.394 95.9977 640.394 100.049 640.394 104.101 637.141 107.461 633 107.461L633 107.461ZM648.085 91.5506 649.662 86.9059 646.113 83.3482 641.479 84.9294C640.296 84.2376 638.916 83.7435 637.634 83.3482L635.465 79 630.535 79 628.366 83.3482C626.986 83.7435 625.704 84.2376 624.521 84.9294L619.887 83.3482 616.437 86.807 617.915 91.4518C617.225 92.6377 616.732 94.0212 616.338 95.306L612 97.48 612 102.421 616.338 104.595C616.732 105.979 617.225 107.264 617.915 108.449L616.437 113.094 619.887 116.553 624.521 115.071C625.704 115.762 626.986 116.256 628.366 116.652L630.535 121 635.465 121 637.634 116.652C639.014 116.256 640.296 115.762 641.479 115.071L646.113 116.652 649.563 113.094 648.085 108.548C648.775 107.362 649.268 106.078 649.662 104.694L654 102.52 654 97.5788 649.662 95.4047C649.268 94.0212 648.775 92.7364 648.085 91.5506Z" fill="url(#fill16)" fill-rule="evenodd"/><path d="M160.95 76C154.36 76 148.968 70.6 148.968 64 148.968 57.4 154.36 52 160.95 52 167.54 52 172.932 57.4 172.932 64 172.932 70.6 167.54 76 160.95 76ZM187.91 56.5001C187.311 54.3001 186.413 52.2 185.314 50.3001L187.811 42.8 182.119 37.1001 174.63 39.6C172.633 38.5001 170.536 37.6 168.339 37L164.944 30 156.956 30 153.461 37C151.264 37.6 149.167 38.5001 147.27 39.6L139.781 37.1001 134.09 42.8 136.586 50.3001C135.488 52.3001 134.589 54.4 133.99 56.6L127 60 127 68 133.99 71.5C134.589 73.7001 135.488 75.8 136.586 77.7001L134.09 85.2 139.781 90.9001 147.27 88.4C149.267 89.5 151.364 90.4 153.561 91L157.056 98 165.044 98 168.539 91C170.736 90.4 172.833 89.5 174.73 88.4L182.219 90.9001 187.91 85.2 185.414 77.7001C186.513 75.7001 187.411 73.6 188.01 71.4L195 67.9001 195 59.9001 187.91 56.5001Z" fill="url(#fill17)" fill-rule="evenodd"/><path d="M1246.85 144.489C1244.35 151.261 1236.83 154.721 1230.06 152.218L1134.22 116.797C1127.45 114.294 1123.99 106.776 1126.5 100.004L1144.62 50.9612C1147.12 44.1896 1154.64 40.7291 1161.41 43.2319L1257.25 78.6532C1264.02 81.1561 1267.48 88.6745 1264.98 95.4461Z" fill="url(#fill18)" fill-rule="evenodd"/><g clip-path="url(#clip21)" filter="url(#fx2)" transform="translate(1075 538)"><g clip-path="url(#clip22)"><path d="M6.82837 19.9953C6.82837 12.7235 12.7234 6.82843 19.9953 6.82843L121.661 6.82843C128.933 6.82843 134.828 12.7235 134.828 19.9953L134.828 72.6615C134.828 79.9334 128.933 85.8284 121.661 85.8284L19.9953 85.8284C12.7234 85.8284 6.82837 79.9334 6.82837 72.6615Z" fill="#FF0000" fill-rule="evenodd"/></g></g><path d="M1079 555.167C1079 547.895 1084.9 542 1092.17 542L1193.83 542C1201.1 542 1207 547.895 1207 555.167L1207 607.833C1207 615.105 1201.1 621 1193.83 621L1092.17 621C1084.9 621 1079 615.105 1079 607.833Z" fill="url(#fill23)" fill-rule="evenodd"/></g></svg>